<svg xmlns="http://www.w3.org/2000/svg" version="1.1" xmlns:xlink="http://www.w3.org/1999/xlink" xmlns:svgjs="http://svgjs.dev/svgjs" width="1080" height="560" preserveAspectRatio="none" viewBox="0 0 1080 560"><g mask="url(&quot;#SvgjsMask1008&quot;)" fill="none"><rect width="1080" height="560" x="0" y="0" fill="rgba(255, 255, 255, 1)"></rect><path d="M511.52 626.98C626.42 553.13 559.03 151.94 768.94 145.08 978.85 138.22 1149.64 294.73 1283.78 296.28" stroke="rgba(139, 175, 127, 1)" stroke-width="2"></path><path d="M162.09 594.76C327.58 563.03 404.16 145.01 662.29 143 920.43 140.99 1028.24 335.54 1162.5 339" stroke="rgba(139, 175, 127, 1)" stroke-width="2"></path><path d="M142.92 563.03C265.51 524.75 291.7 180.64 476.61 172.47 661.52 164.3 643.45 242.47 810.3 242.47 977.14 242.47 1058.75 172.85 1143.99 172.47" stroke="rgba(139, 175, 127, 1)" stroke-width="2"></path><path d="M557.47 592.45C666.39 507.56 599.87 97.14 788.74 90.8 977.61 84.46 1125.21 288.08 1251.28 292.4" stroke="rgba(139, 175, 127, 1)" stroke-width="2"></path><path d="M330.71 610.5C477.16 587.91 530.29 251.61 790.55 236.51 1050.82 221.41 1131.74 119.84 1250.4 118.91" stroke="rgba(139, 175, 127, 1)" stroke-width="2"></path></g><defs><mask id="SvgjsMask1008"><rect width="1080" height="560" fill="#ffffff"></rect></mask></defs></svg>