<?xml version="1.0" standalone="no"?>
<!DOCTYPE svg PUBLIC "-//W3C//DTD SVG 20010904//EN"
 "http://www.w3.org/TR/2001/REC-SVG-20010904/DTD/svg10.dtd">
<svg version="1.0" xmlns="http://www.w3.org/2000/svg"
 width="2048.000000pt" height="2048.000000pt" viewBox="0 0 2048.000000 2048.000000"
 preserveAspectRatio="xMidYMid meet">

<g transform="translate(0.000000,2048.000000) scale(0.100000,-0.100000)"
fill="#000000" stroke="none">
<path d="M0 10240 l0 -10240 10240 0 10240 0 0 10240 0 10240 -10240 0 -10240
0 0 -10240z m5891 2604 c170 -53 277 -168 324 -349 23 -87 21 -268 -3 -380
-44 -199 -91 -303 -240 -526 -214 -322 -393 -518 -620 -677 -148 -104 -383
-205 -582 -251 -228 -53 -247 -54 -1022 -58 -401 -3 -728 -2 -728 0 0 2 34 96
76 208 42 112 228 614 414 1114 186 501 342 918 345 928 7 17 54 18 989 15
957 -3 983 -4 1047 -24z m2477 2 c402 -66 625 -233 722 -541 35 -109 40 -351
11 -503 -39 -202 -125 -401 -248 -575 -74 -105 -255 -286 -358 -359 -182 -128
-405 -222 -603 -254 -86 -13 -169 -15 -534 -11 -386 4 -445 7 -546 26 -483 90
-711 351 -712 813 0 288 67 508 230 752 239 357 642 626 997 666 43 4 272 7
508 5 344 -2 451 -6 533 -19z m3762 13 c0 -14 -68 -103 -189 -249 -126 -151
-234 -268 -338 -362 l-84 -77 -562 -3 c-645 -3 -587 5 -693 -104 -105 -108
-183 -290 -170 -397 15 -130 153 -312 269 -356 19 -7 219 -11 603 -11 339 0
574 -4 574 -9 0 -5 -38 -62 -85 -125 -184 -253 -303 -391 -438 -507 l-68 -59
-263 0 c-279 0 -402 8 -581 40 -416 74 -707 267 -846 563 -88 189 -110 499
-50 708 140 489 569 900 991 948 115 13 1930 13 1930 0z m2374 2 c7 -10 -82
-154 -150 -243 -118 -156 -332 -384 -404 -432 -21 -14 -57 -16 -243 -16 l-218
0 -18 -42 c-9 -24 -141 -377 -292 -785 l-274 -743 -474 0 c-374 0 -472 3 -468
13 60 159 567 1545 567 1550 0 4 -162 7 -360 7 l-360 0 0 51 c0 42 6 59 39
107 93 137 330 405 430 489 l65 53 1077 0 c606 0 1080 -4 1083 -9z m1694 -15
c274 -45 457 -133 583 -282 129 -152 176 -314 167 -576 -13 -358 -155 -674
-428 -948 -173 -174 -374 -302 -591 -374 -187 -63 -252 -68 -741 -63 -386 4
-445 7 -546 26 -402 75 -625 267 -694 597 -17 84 -19 123 -15 254 10 291 69
473 233 722 75 113 253 303 359 383 207 156 428 252 632 275 43 4 272 7 508 5
344 -2 451 -6 533 -19z m-10969 -2663 c0 -5 -30 -34 -67 -66 -230 -201 -1160
-1027 -1174 -1043 -16 -19 -7 -44 207 -579 l224 -560 -37 -7 c-50 -9 -844 -10
-858 0 -6 4 -96 219 -202 477 -242 598 -265 655 -261 659 2 1 126 110 274 242
149 131 419 370 600 529 181 160 345 305 365 322 l35 32 448 1 c246 0 447 -3
446 -7z m1403 -303 c97 -506 168 -863 172 -868 3 -2 13 -1 24 2 21 7 48 76
336 861 l113 310 407 3 c237 1 406 -2 406 -7 0 -7 -722 -1996 -800 -2203 l-21
-58 -519 0 -518 0 -40 213 c-23 116 -73 381 -112 587 -39 206 -75 379 -80 384
-28 28 -29 25 -328 -799 l-138 -380 -412 -3 c-227 -1 -412 0 -412 3 0 3 178
494 396 1093 218 598 403 1106 411 1130 l15 42 521 -2 521 -3 58 -305z m2074
289 c101 -48 114 -148 46 -333 -48 -129 -86 -187 -191 -293 -103 -102 -178
-154 -236 -161 -82 -9 -116 33 -134 162 -15 106 -5 192 35 302 44 123 58 149
118 212 111 117 257 162 362 111z m5357 -171 c41 -101 144 -354 228 -562 l153
-379 -55 -51 c-30 -28 -319 -284 -643 -568 l-588 -518 -451 0 c-248 0 -447 4
-442 8 6 5 111 99 235 208 124 110 398 353 610 540 212 188 393 350 403 361
22 25 38 -21 -201 568 -105 259 -200 494 -211 523 l-21 52 454 0 454 0 75
-182z m-2393 163 c0 -13 -106 -158 -184 -251 -39 -47 -124 -140 -190 -207
l-119 -123 -708 0 c-529 0 -715 -3 -734 -12 -27 -12 -66 -78 -79 -131 -9 -38
7 -63 62 -98 l46 -29 433 0 c501 0 529 -3 634 -74 110 -73 206 -216 243 -361
24 -95 38 -234 31 -305 -26 -246 -213 -522 -424 -628 l-75 -37 -1143 -3 -1144
-2 12 22 c39 76 271 385 366 487 l59 64 740 4 c406 2 749 6 761 8 13 3 25 17
32 36 15 45 14 143 -3 183 -14 34 -15 34 -88 38 -40 3 -256 5 -480 7 -373 1
-413 3 -470 21 -272 85 -474 453 -408 745 16 70 89 221 151 310 67 97 217 241
295 282 121 65 61 62 1277 62 609 1 1107 -3 1107 -8z m1066 -22 c-4 -23 -686
-1906 -793 -2191 l-17 -48 -414 0 c-390 0 -414 1 -407 18 4 9 28 78 55 152
113 319 751 2063 760 2081 10 18 26 19 417 19 l406 0 -7 -31z"/>
<path d="M3680 12128 c-419 -1126 -530 -1428 -530 -1439 0 -7 198 -9 638 -6
510 3 658 8 742 20 439 66 717 196 993 466 123 120 215 233 352 431 195 284
268 478 268 720 0 98 -4 126 -25 187 -45 126 -112 198 -229 246 l-54 22 -956
3 -956 2 -243 -652z m1555 110 c69 -31 87 -155 40 -274 -126 -317 -342 -520
-710 -667 -146 -58 -220 -77 -337 -84 -86 -5 -98 -4 -98 10 0 14 321 889 364
990 l15 37 350 0 c250 0 358 -3 376 -12z"/>
<path d="M4546 12103 c-75 -200 -296 -797 -296 -801 0 -12 115 12 210 44 126
42 302 133 402 207 141 104 257 254 321 413 39 98 46 148 23 180 -14 18 -31
19 -324 22 l-310 3 -26 -68z"/>
<path d="M7250 12761 c-329 -71 -677 -334 -880 -666 -123 -200 -182 -412 -182
-655 0 -155 19 -250 71 -355 119 -239 346 -360 746 -394 157 -14 705 -14 820
0 489 58 951 426 1128 899 74 198 101 474 63 649 -48 226 -222 404 -468 480
-167 51 -212 54 -728 57 -439 3 -493 2 -570 -15z m853 -545 c112 -54 152 -144
152 -336 0 -139 -10 -176 -74 -284 -68 -116 -246 -262 -418 -344 l-78 -37
-220 0 -220 0 -54 30 c-191 106 -285 355 -207 550 16 39 48 97 72 131 57 82
185 200 271 251 124 73 124 73 438 70 l280 -2 58 -29z"/>
<path d="M7486 12159 c-167 -41 -394 -264 -436 -429 -40 -153 60 -369 193
-419 17 -7 112 -11 230 -11 l203 0 69 34 c155 74 327 231 387 353 32 65 33 72
33 188 0 131 -11 176 -53 227 -48 57 -72 62 -342 65 -135 1 -262 -2 -284 -8z"/>
<path d="M10161 12769 c-179 -35 -348 -129 -505 -279 -115 -111 -203 -229
-270 -365 -98 -198 -134 -357 -122 -544 14 -237 75 -391 215 -543 82 -88 163
-146 292 -207 228 -107 498 -151 935 -151 l211 0 75 64 c41 35 105 97 141 137
70 78 247 308 247 321 0 4 -217 8 -483 8 -550 0 -546 -1 -649 78 -112 85 -214
236 -238 355 -28 137 66 358 212 499 32 31 82 68 110 82 l52 26 548 0 548 0
73 68 c41 37 104 99 140 138 84 89 267 306 267 317 0 10 -1745 7 -1799 -4z"/>
<path d="M12308 12733 c-58 -51 -172 -173 -251 -268 -58 -70 -157 -201 -157
-209 0 -4 169 -6 376 -6 354 0 376 -1 372 -17 -4 -13 -533 -1456 -565 -1541
-4 -10 73 -12 378 -10 l384 3 290 783 289 782 241 0 241 0 45 28 c49 32 175
161 261 267 64 80 158 215 158 227 0 4 -452 8 -1005 8 l-1004 0 -53 -47z"/>
<path d="M15080 12761 c-389 -84 -806 -444 -970 -838 -93 -222 -120 -538 -64
-732 39 -138 133 -266 253 -345 192 -128 410 -166 961 -166 306 0 433 9 545
36 383 96 736 382 924 749 131 257 173 605 100 835 -63 197 -228 350 -451 419
-167 51 -212 54 -728 57 -439 3 -493 2 -570 -15z m853 -545 c112 -54 152 -144
152 -336 0 -139 -10 -176 -74 -284 -68 -116 -246 -262 -418 -344 l-78 -37
-220 0 -220 0 -55 30 c-190 104 -284 356 -206 550 16 39 48 97 72 131 57 82
185 200 271 251 124 73 124 73 438 70 l280 -2 58 -29z"/>
<path d="M15316 12159 c-167 -41 -394 -264 -436 -429 -40 -153 60 -369 193
-419 17 -7 112 -11 230 -11 l203 0 69 34 c155 74 327 231 387 353 32 65 33 72
33 188 0 131 -11 176 -53 227 -48 57 -72 62 -342 65 -135 1 -262 -2 -284 -8z"/>
</g>
</svg>
